<svg xmlns="http://www.w3.org/2000/svg" viewBox="0 0 80 80" width="80" height="80">
  <defs>
    <clipPath id="dropClip">
      <path d="M 32 0 A 32 32 0 0 1 64 32 A 32 32 0 0 1 32 64 L 6.4 64 A 6.4 6.4 0 0 1 0 57.6 L 0 32 A 32 32 0 0 1 32 0 Z" />
    </clipPath>
  </defs>
  <g transform="translate(40, 40) rotate(-15) translate(-32, -32)">
    <rect x="0" y="25.6" width="64" height="38.4" fill="#3b82f6" opacity="0.6" clip-path="url(#dropClip)" />
    <path d="M 32 0 A 32 32 0 0 1 64 32 A 32 32 0 0 1 32 64 L 6.4 64 A 6.4 6.4 0 0 1 0 57.6 L 0 32 A 32 32 0 0 1 32 0 Z" fill="none" stroke="#3b82f6" stroke-width="4" />
  </g>
</svg>
